HIERARCHY
ROOT Hips
{
	OFFSET -14.64140 90.27770 -84.91600
	CHANNELS 6 Xposition Yposition Zposition Zrotation Xrotation Yrotation
	JOINT Spine
	{
		OFFSET 0.00000 13.20850 -1.60436
		CHANNELS 3 Zrotation Xrotation Yrotation
		JOINT Spine1
		{
			OFFSET 0.00000 8.61716 0.00000
			CHANNELS 3 Zrotation Xrotation Yrotation
			JOINT Spine2
			{
				OFFSET 0.00000 8.61717 0.00000
				CHANNELS 3 Zrotation Xrotation Yrotation
				JOINT Spine3
				{
					OFFSET 0.00000 8.61717 0.00000
					CHANNELS 3 Zrotation Xrotation Yrotation
					JOINT Neck
					{
						OFFSET 0.00000 11.07920 1.10792
						CHANNELS 3 Zrotation Xrotation Yrotation
						JOINT Neck1
						{
							OFFSET 0.00000 7.08032 0.00000
							CHANNELS 3 Zrotation Xrotation Yrotation
							JOINT Head
							{
								OFFSET 0.00000 7.08031 0.00000
								CHANNELS 3 Zrotation Xrotation Yrotation
								End site
								{
									OFFSET 0.00000 0.00000 0.00000
								}
							}
						}
					}
					JOINT RightShoulder
					{
						OFFSET -0.01000 7.91373 5.19711
						CHANNELS 3 Zrotation Xrotation Yrotation
						JOINT RightArm
						{
							OFFSET -18.41580 0.00000 0.00000
							CHANNELS 3 Zrotation Xrotation Yrotation
							JOINT RightForeArm
							{
								OFFSET -29.11090 0.00000 0.00000
								CHANNELS 3 Zrotation Xrotation Yrotation
								JOINT RightHand
								{
									OFFSET -24.65040 0.00000 0.00000
									CHANNELS 3 Zrotation Xrotation Yrotation
									JOINT RightHandThumb1
									{
										OFFSET -5.35114 -0.85590 3.97906
										CHANNELS 3 Zrotation Xrotation Yrotation
										JOINT RightHandThumb2
										{
											OFFSET -4.52789 0.00000 0.00000
											CHANNELS 3 Zrotation Xrotation Yrotation
											JOINT RightHandThumb3
											{
												OFFSET -2.46976 0.00000 0.00000
												CHANNELS 3 Zrotation Xrotation Yrotation
												End site
												{
													OFFSET 0.00000 0.00000 0.00000
												}
											}
										}
									}
									JOINT RightHandIndex1
									{
										OFFSET -14.26970 0.00000 2.88139
										CHANNELS 3 Zrotation Xrotation Yrotation
										JOINT RightHandIndex2
										{
											OFFSET -5.48836 0.00000 0.00000
											CHANNELS 3 Zrotation Xrotation Yrotation
											JOINT RightHandIndex3
											{
												OFFSET -3.01859 0.00000 0.00000
												CHANNELS 3 Zrotation Xrotation Yrotation
												End site
												{
													OFFSET 0.00000 0.00000 0.00000
												}
											}
										}
									}
									JOINT RightHandMiddle1
									{
										OFFSET -14.26970 0.00000 -0.09147
										CHANNELS 3 Zrotation Xrotation Yrotation
										JOINT RightHandMiddle2
										{
											OFFSET -6.17441 0.00000 0.00000
											CHANNELS 3 Zrotation Xrotation Yrotation
											JOINT RightHandMiddle3
											{
												OFFSET -3.56743 0.00000 0.00000
												CHANNELS 3 Zrotation Xrotation Yrotation
												End site
												{
													OFFSET 0.00000 0.00000 0.00000
												}
											}
										}
									}
									JOINT RightHandRing1
									{
										OFFSET -12.69180 0.00000 -3.06433
										CHANNELS 3 Zrotation Xrotation Yrotation
										JOINT RightHandRing2
										{
											OFFSET -5.62556 0.00000 0.00000
											CHANNELS 3 Zrotation Xrotation Yrotation
											JOINT RightHandRing3
											{
												OFFSET -3.56744 0.00000 0.00000
												CHANNELS 3 Zrotation Xrotation Yrotation
												End site
												{
													OFFSET 0.00000 0.00000 0.00000
												}
											}
										}
									}
									JOINT RightHandPinky1
									{
										OFFSET -11.11390 0.00000 -6.03719
										CHANNELS 3 Zrotation Xrotation Yrotation
										JOINT RightHandPinky2
										{
											OFFSET -4.52789 0.00000 0.00000
											CHANNELS 3 Zrotation Xrotation Yrotation
											JOINT RightHandPinky3
											{
												OFFSET -2.46976 0.00000 0.00000
												CHANNELS 3 Zrotation Xrotation Yrotation
												End site
												{
													OFFSET 0.00000 0.00000 0.00000
												}
											}
										}
									}
								}
							}
						}
					}
					JOINT LeftShoulder
					{
						OFFSET 0.01000 7.91373 5.19711
						CHANNELS 3 Zrotation Xrotation Yrotation
						JOINT LeftArm
						{
							OFFSET 18.41580 0.00000 0.00000
							CHANNELS 3 Zrotation Xrotation Yrotation
							JOINT LeftForeArm
							{
								OFFSET 29.11090 0.00000 0.00000
								CHANNELS 3 Zrotation Xrotation Yrotation
								JOINT LeftHand
								{
									OFFSET 24.65040 0.00000 0.00000
									CHANNELS 3 Zrotation Xrotation Yrotation
									JOINT LeftHandThumb1
									{
										OFFSET 5.35114 -0.85590 3.97906
										CHANNELS 3 Zrotation Xrotation Yrotation
										JOINT LeftHandThumb2
										{
											OFFSET 4.52789 0.00000 0.00000
											CHANNELS 3 Zrotation Xrotation Yrotation
											JOINT LeftHandThumb3
											{
												OFFSET 2.46977 0.00000 0.00000
												CHANNELS 3 Zrotation Xrotation Yrotation
												End site
												{
													OFFSET 0.00000 0.00000 0.00000
												}
											}
										}
									}
									JOINT LeftHandIndex1
									{
										OFFSET 14.26970 0.00000 2.88139
										CHANNELS 3 Zrotation Xrotation Yrotation
										JOINT LeftHandIndex2
										{
											OFFSET 5.48836 0.00000 0.00000
											CHANNELS 3 Zrotation Xrotation Yrotation
											JOINT LeftHandIndex3
											{
												OFFSET 3.01859 0.00000 0.00000
												CHANNELS 3 Zrotation Xrotation Yrotation
												End site
												{
													OFFSET 0.00000 0.00000 0.00000
												}
											}
										}
									}
									JOINT LeftHandMiddle1
									{
										OFFSET 14.26970 0.00000 -0.09147
										CHANNELS 3 Zrotation Xrotation Yrotation
										JOINT LeftHandMiddle2
										{
											OFFSET 6.17440 0.00000 0.00000
											CHANNELS 3 Zrotation Xrotation Yrotation
											JOINT LeftHandMiddle3
											{
												OFFSET 3.56744 0.00000 0.00000
												CHANNELS 3 Zrotation Xrotation Yrotation
												End site
												{
													OFFSET 0.00000 0.00000 0.00000
												}
											}
										}
									}
									JOINT LeftHandRing1
									{
										OFFSET 12.69180 0.00000 -3.06433
										CHANNELS 3 Zrotation Xrotation Yrotation
										JOINT LeftHandRing2
										{
											OFFSET 5.62556 0.00000 0.00000
											CHANNELS 3 Zrotation Xrotation Yrotation
											JOINT LeftHandRing3
											{
												OFFSET 3.56744 0.00000 0.00000
												CHANNELS 3 Zrotation Xrotation Yrotation
												End site
												{
													OFFSET 0.00000 0.00000 0.00000
												}
											}
										}
									}
									JOINT LeftHandPinky1
									{
										OFFSET 11.11390 0.00000 -6.03719
										CHANNELS 3 Zrotation Xrotation Yrotation
										JOINT LeftHandPinky2
										{
											OFFSET 4.52789 0.00000 0.00000
											CHANNELS 3 Zrotation Xrotation Yrotation
											JOINT LeftHandPinky3
											{
												OFFSET 2.46976 0.00000 0.00000
												CHANNELS 3 Zrotation Xrotation Yrotation
												End site
												{
													OFFSET 0.00000 0.00000 0.00000
												}
											}
										}
									}
								}
							}
						}
					}
					JOINT pCube4
					{
						OFFSET 0.00000 10.91090 1.10792
						CHANNELS 3 Zrotation Xrotation Yrotation
						End site
						{
							OFFSET 0.00000 0.00000 0.00000
						}
					}
				}
			}
		}
	}
	JOINT RightUpLeg
	{
		OFFSET -9.98441 0.00000 0.00000
		CHANNELS 3 Zrotation Xrotation Yrotation
		JOINT RightLeg
		{
			OFFSET 0.00000 -42.11790 0.00000
			CHANNELS 3 Zrotation Xrotation Yrotation
			JOINT RightFoot
			{
				OFFSET 0.00000 -45.00020 -0.00001
				CHANNELS 3 Zrotation Xrotation Yrotation
				JOINT RightForeFoot
				{
					OFFSET 0.00000 -3.74820 0.00000
					CHANNELS 3 Zrotation Xrotation Yrotation
					JOINT RightToeBase
					{
						OFFSET 0.00000 0.06325 14.43120
						CHANNELS 3 Zrotation Xrotation Yrotation
						End site
						{
							OFFSET 0.00000 0.00000 0.00000
						}
					}
				}
			}
		}
	}
	JOINT LeftUpLeg
	{
		OFFSET 9.98441 0.00000 0.00000
		CHANNELS 3 Zrotation Xrotation Yrotation
		JOINT LeftLeg
		{
			OFFSET 0.00000 -42.11800 0.00000
			CHANNELS 3 Zrotation Xrotation Yrotation
			JOINT LeftFoot
			{
				OFFSET 0.00000 -45.00070 0.00000
				CHANNELS 3 Zrotation Xrotation Yrotation
				JOINT LeftForeFoot
				{
					OFFSET 0.00000 -3.74824 0.00000
					CHANNELS 3 Zrotation Xrotation Yrotation
					JOINT LeftToeBase
					{
						OFFSET 0.00000 0.06325 14.43110
						CHANNELS 3 Zrotation Xrotation Yrotation
						End site
						{
							OFFSET 0.00000 0.00000 0.00000
						}
					}
				}
			}
		}
	}
}
MOTION
Frames: 4
Frame Time: 0.050000
0.04453680268334154 0.0032718172445112947 -0.04501820471926385 -0.04914107297402865 0.03325386471022958 -0.019403048088470563 -4.74304747704248 0.801019027623592 -0.4813958240740895 -0.9275696900000169 3.306999438674317 0.4151159284829884 -1.2065554549819524 -1.8108363029734005 -1.240888741511027 -0.5806914232006539 0.25321938140268585 -0.9030713051306966 -0.822415426806963 12.322142140841525 1.0784297270159613 -0.04245249841630795 1.0135379242625857 0.26950237907467517 -0.45984211915484074 -12.378803142990844 0.09579558874515083 -0.6574025687155798 1.0800277952770345 -12.62410191657764 68.271221079053 14.682751160325614 5.832293786790457 29.03845815238399 6.825480744485736 84.47804075770921 23.959138543173076 -0.33579799854060316 -5.774592676008357 4.577678160601247 -0.09102225707986006 -1.6211104610559315 -0.04857725427634859 -0.04300905641533759 -56.209023108998 0.032213427041002135 0.040649040608074914 -56.24075908646367 -38.809485583110735 -0.029214275449487615 0.03680530501771265 0.025507266985486804 0.02516867427741952 0.009765849856595505 -0.04273170083571646 -0.002085812398133547 0.011650833717560038 -36.69191963785623 0.017398520030717027 -0.03055858110962136 0.0044826632113438465 -0.012179843674954121 0.011712933430075977 0.027218774667740732 -0.007717305450238785 -0.04903134235324701 -19.7230998294894 -0.0279231572447821 -0.04635855870185963 0.038370659569447726 -0.011602963313053353 -0.015794452000855684 -0.013165980382419602 -0.013293348230567175 0.04894041750824284 24.068356860032477 0.03762807498348103 0.006229529398876693 28.843508319299822 -0.02470855914644046 -0.0011470630932113978 28.874880294056805 0.043192499777793436 0.036825751065594305 4.225246640234625 1.369712226947206 12.886916438126786 -60.15702974703824 24.860686248964118 -21.651579724260195 2.42519504453626 13.753138620757081 -67.08227499565997 -11.824935125087551 8.592543048320515 -6.040511338755195 -0.4308079629756688 0.01926128602175014 -8.143654152993742 -0.02148830171454814 -0.030893106144138538 44.541902290933066 -0.0013069684519635436 0.020252386542613347 44.52421674504184 12.432002513820146 -0.01095255732690484 -0.03153742236001695 0.01169926233106886 0.03433465029658531 0.025334983362164398 -0.018581138657105055 -0.0017469826139290374 -0.01955131616528027 11.117696943053488 -0.04264933300523707 0.005567243098430806 0.01122101796413565 0.03196550050249467 0.0009728810264690515 0.00044584683557495283 0.025982594497757368 0.03877696115753508 4.802345940545429 -0.03158452008553049 -0.02880889134439256 -0.03217100240348103 0.03601659578944433 -0.022870807356462974 -0.03815385194051568 0.00643169721811292 -0.01855474842194652 -5.606892392301606 -0.0005139928014469973 -0.04820887275125128 -6.745559543252871 0.025141493511701588 0.038179498770956374 -6.751353151953142 -0.016422610248530076 -0.021273278295395433 0.02818966695953025 0.021937454192121036 0.03150788080702969 8.022528314007868 3.5425587960674014 -19.23021157016 -0.025706744978253454 10.397476902979756 0.002241829680520526 -5.587923528933512 -15.655123143152515 3.2357636184341634 0.03492287219402096 -0.014472043347911762 0.04173443305440459 -0.039425372874999136 4.686875566867356 -0.030009395064797925 12.411393928604458 -8.193023790934738 6.8992123752422065 0.0046964899033773225 46.418398334118464 0.0311308545432171 -4.317251779617291 -14.786161240032696 -3.815169307846666 0.02668694451571211 -0.04892134996148599 0.031333517709670515 -0.0353132808966957 -10.766038265635013 0.0006837054080010923 
-0.03861602837028043 -0.028097613337582178 -0.0039305551160652135 -0.020031382539335757 -0.025534041723755466 0.021407833375129005 -4.655297429946457 0.8610060017539185 -0.5245982664477018 -0.9518977323958759 3.2753675340586903 0.4114470040188244 -1.2279537434239975 -1.7632362765024803 -1.3802218256291439 -0.5152330079881298 0.2547146475531807 -0.9431349276129072 -0.7504359563904401 12.228188272803857 0.9015971710163247 -0.05896175814741137 0.9638341202242018 -0.06825416343979639 -0.3543916520776394 -12.432525368918457 0.03427139675068715 -0.6179604637305809 0.984338442073359 -12.610855803404295 68.19518520916934 14.929215177681066 5.460378250403028 29.45171707474794 7.236396326402922 83.29726739045608 24.202371588023958 -0.3181890317879829 -5.706057332492312 4.571766146630141 -0.12692288334447188 -1.5707727769896118 -0.004964112023521518 0.043936104851210855 -56.21884233888265 -0.04836182302877983 -0.041983977358329296 -56.27491257627624 -38.73845648012477 0.023116413110672238 0.02766007510099935 -0.015436728462164484 -0.043998629705365964 -0.029008239056279816 -0.015101625562013691 -0.0018019735764534636 0.025756557004024072 -36.73137756065017 -0.04772431747465459 0.0012987101327047157 0.010843048405131346 0.03997666260588814 -0.021349809945882318 -0.004362823316670607 0.03869354369317424 0.004297494775325379 -19.800859834132094 0.004154923309066719 -0.03635571638162089 -0.014286787239205203 0.04960531505255671 0.04935530539258493 -0.04288305910391965 -0.03468820569933664 -0.039607687547200135 24.042099269706497 0.04262916163912144 -0.012127455882044634 28.836749490113295 0.04609438544226242 -0.04105827154206059 28.86661485349659 -0.044135113024978065 -0.046201449063833305 4.146589748291895 1.366508288563367 12.644352353058476 -60.215649379164724 25.481870170630312 -21.50505304662155 2.265921274576128 13.445184133812953 -66.16712689644898 -11.836925170429332 8.539644328152752 -5.978779057939438 -0.4558184951507878 0.04270389182982555 -8.14617013496053 0.04502056527062371 0.02798107969904167 44.52474142379766 0.04191040763436236 0.044118386336929064 44.56154630639603 12.417144964692046 0.007989493004877867 -0.03562039848545812 -0.025541620036040682 0.011112554723271077 0.046057249342655524 -0.029188355910623905 0.0031911785481654113 0.0024857377482584114 11.111928042924244 -0.04740841050475843 0.016945618100629903 0.013042303893041516 -0.04036935093093201 -0.013203513713150894 -0.022332173188420512 0.040464416619319626 -0.03364459729094404 4.723742137832707 -0.03179677681648984 0.0026235193248370773 0.03399364807809621 0.018264015575055022 0.003064675319624813 -0.010315865448998901 0.048541324414012446 -0.005344582057444984 -5.58552447443504 0.02589337103079699 -0.0016175414468245321 -6.736633913218668 0.010410869954231853 0.034250905345898794 -6.756483563536144 0.038911298076814024 -0.03348899809895234 0.0030029903701268147 0.028458510995698457 0.0361425632151988 8.014309730841326 3.4660668310325047 -19.236035685599994 0.0006404439597319072 10.426229750352807 -0.01956374027912128 -5.604033163187996 -15.633133163359195 3.2067679949472776 0.009470980611380271 -0.01651191626057859 -0.01354857098909646 -0.018781743028281006 4.713364195721005 -0.00847026277031841 12.419059478294285 -8.221299971865118 6.858257498716096 -0.03924509864198212 46.36551284420485 0.039678491261767194 -4.354726337492636 -14.779831792234422 -3.8313789388716835 0.02774491610015163 0.014062055364821753 -0.018211655796840327 -0.035126002102761116 -10.741397044267071 0.028281097988952782 
-0.01778244492868719 0.003263136078813733 -0.026179576428116164 0.006971681434730841 -0.0155221053662239 -0.021850535551648353 -4.608344126087206 0.7910104548236555 -0.5254059798560682 -0.9662885032147642 3.3502055901346925 0.3775598744458714 -1.1859883002876264 -1.8132273565581978 -1.4630831802150486 -0.4489178745362947 0.28214135000830814 -0.9260360890082383 -0.7353905028639521 12.167990198231465 0.7987913152911087 -0.05876942141993645 0.9638954860507851 -0.10600842273760325 -0.3481749663032663 -12.474468941242863 0.016738168080957974 -0.6861582169957553 1.0298467742960111 -12.64823844525405 68.36772568644733 14.932547820563538 5.228729386852929 30.093553909934588 7.500495271066374 82.29739749898553 24.400816462825173 -0.23092068017310488 -5.696211216213501 4.4838096213493825 -0.1376444680764799 -1.5803704948887938 -0.039972208434861795 0.007582562177992849 -56.20478001811977 -0.0074536621464727695 0.030271569069101723 -56.25110560846288 -38.78720510649139 -0.009468188800601688 -0.0016903528230885108 0.03943037727658948 -0.037594185733827376 0.008061654422773436 -0.0017651413726217108 -0.007758872173979881 0.027848789952611138 -36.71926538250783 -0.011824426245360356 0.04691699661971531 -0.03177501445003901 -0.012950839363783058 0.04657809804112404 -0.043657110504392714 -0.03368868194008697 -0.025116720536774342 -19.80362660656431 0.003081650388765785 0.00020175585740455154 0.007064948885215723 -0.028824351639073667 0.012175636736255581 -0.005400669056633987 0.04183430299213277 -0.030444805704653296 24.054257367550083 0.02738325199332399 -0.0005791254927784984 28.816897336205546 -0.02671962761789704 -0.02061319022075719 28.915004273139314 0.005254091107403226 -0.010034379963045724 4.090674091015571 1.3320709304457092 12.555816681134607 -60.24551702293726 25.829696051528444 -21.384624221468943 1.6638432953435967 13.016751419848903 -65.3746133771209 -11.81064735597253 8.659956677713629 -5.988846248130373 -0.5155471516220129 0.10991997878866053 -8.104094406629432 0.018151731411880468 0.04593979836772891 44.576530101110194 -0.011664625091998886 0.04105674211420716 44.56725319402594 12.477813939185202 -0.024764103880019636 0.006170950369933284 -0.01868652392939919 0.012291026586847536 -0.0035870015339521098 0.01927773545127427 0.04228068614676783 -0.010738269212907263 11.123765324542672 -0.011079012502091696 -0.01005362015733397 -0.022846936335004536 0.031124610962800583 0.022802882050452895 -0.03536786210661355 0.002732418270104234 -0.007845073641642721 4.75479825880451 -0.024843207127724417 -0.02468941216102254 -0.014332726439019176 -0.03413750057234623 -0.0425586667702485 -0.03864287460345733 0.019616933346405904 -0.009382813090114437 -5.60052815820795 -0.029063292791535727 0.011446113988101395 -6.705663202573642 0.024453444693207444 0.014113452696471756 -6.75525468331803 -0.021625481104290894 -0.016255031705221478 0.01563518496599959 0.0007068744910078954 0.03500790786803801 8.065773652085692 3.518293924711796 -19.206027503392704 -0.0010303559112090047 10.387759044058232 0.0170381135486411 -5.6317686081867055 -15.63663589773957 3.167811040561482 0.022418414132521904 0.003865483083412565 0.0493129438791624 -0.0007259823880099095 4.730541701848565 -0.006484553027376165 12.448591057391535 -8.272728085322722 6.921358215376792 0.04735569020899352 46.41887623476905 -0.017019578445288206 -4.35630392719535 -14.706724565758561 -3.8421759406179956 -0.01693993533889464 -0.020978245901252218 0.026537501256181546 0.010034537265578175 -10.741714614526488 -0.00978682399753019 
0.03738991018095455 -0.0166946110646442 -0.033930945243929846 0.007212058092556284 -0.011855385335990815 -0.01615775727350861 -4.4662927967133825 0.5883865176882763 -0.5235129286769773 -0.924082577794388 3.3019406586450954 0.3673322992714367 -1.154329116328545 -1.880015215800398 -1.50392261144703 -0.3900665751517338 0.2615181262793797 -0.8960106877519258 -0.6631258935251617 12.260717279806565 0.8003429552912977 -0.0035509734768339914 0.9848049738484757 -0.1771815795983625 -0.31547885413447463 -12.394440241262204 0.09579905235873118 -0.7467662493871151 1.069121693660013 -12.649548233099871 68.46015447360193 14.77561358778384 5.0730690464282295 30.926430983889052 7.665193952489831 81.39594465837344 24.513485634166447 -0.30467987891451126 -5.542213956396204 4.560686957268186 -0.09986777566918201 -1.593529722742448 -0.006556489957459673 -0.030251766780923048 -56.25443595832532 0.03473806015139783 -0.009735654972539453 -56.19003761747463 -38.72407478077773 0.0022196487470857217 -0.011978181081477099 0.043475943519283 -0.04415580194660216 -0.007967807195245969 0.00025754135115637207 -0.00551814555155387 0.011846425134450547 -36.67315081145965 -0.002775005649998957 0.02851374043310296 0.006199442414671036 -0.0084605531716456 -0.04702502517650073 -0.01805355891478868 -0.02903710122719589 -0.02925977130692805 -19.71815816707343 -0.03807337112367868 -0.03437486507449083 0.03560187596576381 0.04316426397454198 0.003466173218791748 -0.04553897398174835 -0.011153972499750905 -0.020749959289704897 24.095087420912265 -0.029132038088287487 0.00389447157011983 28.854328723285043 0.033956051004486926 -0.012180185597708188 28.87830096636051 0.04211377117821824 0.036200110358461116 4.213102066206306 1.3469151766472975 12.448603261110154 -60.33049783029561 26.060875066961383 -21.420018145676828 0.8273354006284903 12.489534417932509 -64.8343200939716 -11.784056441473352 8.666292712247769 -5.9547036251920185 -0.4591561614402387 0.031452241886282394 -8.078365236128608 0.003139183723712318 -0.0007463346240822486 44.57082550275443 -0.045324270018282986 0.011311208022576591 44.59722413833967 12.456067582452063 0.013978078780271345 -0.024436788765204838 -0.015691835374239852 -0.03725117516140411 0.03665768270176147 0.04836999477177405 0.013046382111584086 0.002211016498939214 11.081500701542518 0.029154329776055934 -0.009423385765349259 -0.018176913346744643 -0.013632048414534208 -0.025741944356535443 -0.038098107137192944 0.020444964315210947 -0.018840868934338697 4.758033360257374 -0.0036767969163903616 0.02105092752016593 0.03633700093088653 0.010712509515421013 -0.003239971748564827 -0.0040876575759555955 -0.03351439695601557 0.0008537985522877625 -5.618976064619099 0.012047289098392136 0.005371225137469544 -6.738752457870718 -0.011683659050646075 -0.008905869601863835 -6.749049431300425 -0.04264334625622613 0.029563249808894625 0.03877480064818318 0.021186366958858147 0.012929948104532655 8.009433749512313 3.4732488418529632 -19.265022499477467 0.03509645268664219 10.418633006284141 0.04160998738099929 -5.572427470862056 -15.627911423358247 3.193212954784911 -0.006304088066522694 0.03956820542618674 0.025239377621743064 0.03482262144732246 4.710015020374477 0.0167368695376106 12.448832930520988 -8.190762308985626 6.916391843897876 -0.03407064126368736 46.402915584580285 0.034123296423448655 -4.340416547982663 -14.746671987488224 -3.8262549257089504 0.03166429574088111 0.01045808165031467 0.015067845139658032 0.008278185192211835 -10.793228179114834 0.03237301159666204 
